<?xml version="1.0" encoding="UTF-8"?>
<svg width="16px" height="18px" viewBox="0 0 16 18" version="1.1" xmlns="http://www.w3.org/2000/svg" xmlns:xlink="http://www.w3.org/1999/xlink">
    <!-- Generator: Sketch 48.2 (47327) - http://www.bohemiancoding.com/sketch -->
    <title>Path 2</title>
    <desc>Created with Sketch.</desc>
    <defs></defs>
    <g id="Mobile-Copy-21" stroke="none" stroke-width="1" fill="none" fill-rule="evenodd" transform="translate(-239.000000, -620.000000)">
        <path d="M241.869264,619.422176 C243.015444,622.529425 243.588534,624.913581 243.588534,626.574645 C243.588534,628.241272 243.011599,630.685736 241.85773,633.908038 L242.221931,634.038454 C242.163625,634.201279 242.248355,634.380541 242.41118,634.438846 C242.490559,634.467271 242.578047,634.462486 242.653853,634.425572 L256.90954,627.483692 C257.406082,627.241898 257.612596,626.643358 257.370802,626.146816 C257.27163,625.943157 257.106249,625.779202 256.901739,625.681796 L242.084661,619.225561 C242.006164,619.188174 241.912221,619.2215 241.874833,619.299997 C241.856586,619.338309 241.854578,619.382364 241.869264,619.422176 Z" id="Path-2" fill="#FFFFFF" transform="translate(249.735980, 626.662212) rotate(-51.000000) translate(-249.735980, -626.662212) "></path>
    </g>
</svg>